<mxfile host="377dd0f2-5f1c-4684-95e1-313bb592744f" modified="2020-07-18T07:29:39.553Z" agent="5.0 (Windows NT 10.0; Win64; x64) AppleWebKit/537.36 (KHTML, like Gecko) Code/1.47.2 Chrome/78.0.3904.130 Electron/7.3.2 Safari/537.36" etag="VFcC7aMGcvr26dmw7Ts5" version="13.1.3">
    <diagram id="6hGFLwfOUW9BJ-s0fimq" name="Page-1">
        <mxGraphModel dx="740" dy="863" grid="1" gridSize="10" guides="1" tooltips="1" connect="1" arrows="1" fold="1" page="1" pageScale="1" pageWidth="827" pageHeight="1169" math="0" shadow="0">
            <root>
                <mxCell id="0"/>
                <mxCell id="1" parent="0"/>
                <mxCell id="5" value="TCP包首部" style="rounded=0;whiteSpace=wrap;html=1;fillColor=none;" parent="1" vertex="1">
                    <mxGeometry x="336" y="480" width="120" height="60" as="geometry"/>
                </mxCell>
                <mxCell id="6" value="数据" style="shape=document;whiteSpace=wrap;html=1;boundedLbl=1;direction=north;fillColor=none;" parent="1" vertex="1">
                    <mxGeometry x="456" y="480" width="100" height="60" as="geometry"/>
                </mxCell>
                <mxCell id="11" value="" style="shape=curlyBracket;whiteSpace=wrap;html=1;rounded=1;direction=north;" parent="1" vertex="1">
                    <mxGeometry x="456" y="550" width="90" height="20" as="geometry"/>
                </mxCell>
                <mxCell id="12" value="TCP中的数据&lt;br&gt;" style="text;html=1;align=center;verticalAlign=middle;resizable=0;points=[];autosize=1;" parent="1" vertex="1">
                    <mxGeometry x="472" y="585" width="90" height="20" as="geometry"/>
                </mxCell>
                <mxCell id="15" value="TCP包首部" style="rounded=0;whiteSpace=wrap;html=1;fillColor=none;" parent="1" vertex="1">
                    <mxGeometry x="342" y="320" width="120" height="60" as="geometry"/>
                </mxCell>
                <mxCell id="16" value="数据" style="shape=document;whiteSpace=wrap;html=1;boundedLbl=1;direction=north;fillColor=none;" parent="1" vertex="1">
                    <mxGeometry x="462" y="320" width="100" height="60" as="geometry"/>
                </mxCell>
                <mxCell id="17" value="" style="shape=curlyBracket;whiteSpace=wrap;html=1;rounded=1;direction=north;" parent="1" vertex="1">
                    <mxGeometry x="340" y="390" width="212" height="20" as="geometry"/>
                </mxCell>
                <mxCell id="18" value="IP中的数据" style="text;html=1;align=center;verticalAlign=middle;resizable=0;points=[];autosize=1;" parent="1" vertex="1">
                    <mxGeometry x="411" y="425" width="70" height="20" as="geometry"/>
                </mxCell>
                <mxCell id="19" value="IP包首部" style="rounded=0;whiteSpace=wrap;html=1;" parent="1" vertex="1">
                    <mxGeometry x="222" y="320" width="120" height="60" as="geometry"/>
                </mxCell>
                <mxCell id="20" value="TCP包首部" style="rounded=0;whiteSpace=wrap;html=1;fillColor=none;" parent="1" vertex="1">
                    <mxGeometry x="342" y="160" width="120" height="60" as="geometry"/>
                </mxCell>
                <mxCell id="21" value="数据" style="shape=document;whiteSpace=wrap;html=1;boundedLbl=1;direction=north;fillColor=none;" parent="1" vertex="1">
                    <mxGeometry x="462" y="160" width="100" height="60" as="geometry"/>
                </mxCell>
                <mxCell id="22" value="" style="shape=curlyBracket;whiteSpace=wrap;html=1;rounded=1;direction=north;" parent="1" vertex="1">
                    <mxGeometry x="220" y="230" width="332" height="20" as="geometry"/>
                </mxCell>
                <mxCell id="23" value="以太网数据" style="text;html=1;align=center;verticalAlign=middle;resizable=0;points=[];autosize=1;" parent="1" vertex="1">
                    <mxGeometry x="346" y="265" width="80" height="20" as="geometry"/>
                </mxCell>
                <mxCell id="24" value="IP包首部" style="rounded=0;whiteSpace=wrap;html=1;fillColor=none;" parent="1" vertex="1">
                    <mxGeometry x="222" y="160" width="120" height="60" as="geometry"/>
                </mxCell>
                <mxCell id="25" value="以太网包首部" style="rounded=0;whiteSpace=wrap;html=1;" parent="1" vertex="1">
                    <mxGeometry x="102" y="160" width="120" height="60" as="geometry"/>
                </mxCell>
            </root>
        </mxGraphModel>
    </diagram>
</mxfile>